<svg xmlns="http://www.w3.org/2000/svg" width="1160" height="826" viewBox="0 0 1160 826"><rect x="0" y="0" width="1160" height="826" rx="0" fill="#101318"/><text x="30" y="35" fill="#D9DFE8" font-family="Inter" font-size="21" font-weight="600">15  Settings · ⌘,</text><text x="30" y="62" fill="#8993A3" font-family="Inter" font-size="12" font-weight="400">Separate settings window; native appearance and terminal preferences remain available.</text><g transform="translate(30,101)"><rect x="0" y="0" width="1100" height="700" rx="10" fill="#15181D"/><rect x="0" y="0" width="1100" height="36" rx="10" fill="#1C2026"/><rect x="0" y="26" width="1100" height="10" rx="0" fill="#1C2026"/><circle cx="19" cy="18" r="5" fill="#F27770"/><circle cx="39" cy="18" r="5" fill="#E5BC63"/><circle cx="59" cy="18" r="5" fill="#83BB85"/><rect x="87" y="0" width="233" height="36" rx="0" fill="#2B3441"/><rect x="97" y="34" width="213" height="2" rx="0" fill="#8FAEF0"/><text x="102" y="23" fill="#D9DFE8" font-family="Inter" font-size="12" font-weight="400">Terminal 1</text><text x="181" y="23" fill="#8993A3" font-family="Inter" font-size="10" font-weight="400">Original shell</text><text x="297" y="23" fill="#D9DFE8" font-family="Inter" font-size="12" font-weight="400">▾</text><text x="337" y="23" fill="#8993A3" font-family="Inter" font-size="12" font-weight="400">Terminal 2  ▾</text><path d="M0 36H1100" stroke="#303640"/><text x="20" y="70" fill="#8FAEF0" font-family="JetBrains Mono" font-size="13" font-weight="400">~/work/tether   main</text><text x="20" y="91" fill="#D9DFE8" font-family="JetBrains Mono" font-size="13" font-weight="400"></text><text x="20" y="112" fill="#D9DFE8" font-family="JetBrains Mono" font-size="13" font-weight="400">  1  struct WorkspaceView: View {</text><text x="20" y="133" fill="#8993A3" font-family="JetBrains Mono" font-size="13" font-weight="400">  2    @Environment(\.isZenMode)</text><text x="20" y="154" fill="#D9DFE8" font-family="JetBrains Mono" font-size="13" font-weight="400">  3    private var isZenMode</text><text x="20" y="175" fill="#8993A3" font-family="JetBrains Mono" font-size="13" font-weight="400">  4</text><text x="20" y="196" fill="#D9DFE8" font-family="JetBrains Mono" font-size="13" font-weight="400">  5    var body: some View {</text><text x="20" y="217" fill="#D9DFE8" font-family="JetBrains Mono" font-size="13" font-weight="400">  6      VStack(spacing: 0) {</text><text x="20" y="238" fill="#8FAEF0" font-family="JetBrains Mono" font-size="13" font-weight="400">  7        if !isZenMode {</text><text x="20" y="259" fill="#D9DFE8" font-family="JetBrains Mono" font-size="13" font-weight="400">  8          workspaceTabs</text><text x="20" y="280" fill="#D9DFE8" font-family="JetBrains Mono" font-size="13" font-weight="400">  9        }</text><text x="20" y="301" fill="#D9DFE8" font-family="JetBrains Mono" font-size="13" font-weight="400"> 10        terminal</text><text x="20" y="322" fill="#D9DFE8" font-family="JetBrains Mono" font-size="13" font-weight="400"> 11      }</text><text x="20" y="343" fill="#D9DFE8" font-family="JetBrains Mono" font-size="13" font-weight="400"> 12    }</text><text x="20" y="364" fill="#D9DFE8" font-family="JetBrains Mono" font-size="13" font-weight="400"> 13  }</text><path d="M672 36L672 676" stroke="#303640"/><text x="692" y="70" fill="#D9DFE8" font-family="JetBrains Mono" font-size="13" font-weight="400">❯ swift build --package-path app</text><text x="692" y="91" fill="#8993A3" font-family="JetBrains Mono" font-size="13" font-weight="400">Building for debugging…</text><text x="692" y="112" fill="#8993A3" font-family="JetBrains Mono" font-size="13" font-weight="400">[4/4] Linking TetherApp</text><text x="692" y="133" fill="#8EC9AD" font-family="JetBrains Mono" font-size="13" font-weight="400">Build complete! (1.82s)</text><text x="692" y="154" fill="#D9DFE8" font-family="JetBrains Mono" font-size="13" font-weight="400"></text><text x="692" y="175" fill="#D9DFE8" font-family="JetBrains Mono" font-size="13" font-weight="400">❯</text><path d="M672 350H1100" stroke="#303640"/><text x="692" y="380" fill="#D9DFE8" font-family="JetBrains Mono" font-size="13" font-weight="400">❯ git diff --stat</text><text x="692" y="401" fill="#8993A3" font-family="JetBrains Mono" font-size="13" font-weight="400"> Design.swift         | 24 +++++</text><text x="692" y="422" fill="#8993A3" font-family="JetBrains Mono" font-size="13" font-weight="400"> WorkspaceView.swift  | 48 +++++</text><text x="692" y="443" fill="#8EC9AD" font-family="JetBrains Mono" font-size="13" font-weight="400"> 2 files changed</text><text x="692" y="464" fill="#D9DFE8" font-family="JetBrains Mono" font-size="13" font-weight="400"></text><text x="692" y="485" fill="#D9DFE8" font-family="JetBrains Mono" font-size="13" font-weight="400">❯</text><rect x="0" y="36" width="2" height="640" rx="0" fill="#8FAEF0"/><rect x="0" y="676" width="1100" height="24" rx="0" fill="#1C2026"/><text x="12" y="692" fill="#D9DFE8" font-family="Inter" font-size="11" font-weight="400">● localhost ▾</text><text x="179" y="692" fill="#8993A3" font-family="Inter" font-size="10" font-weight="400">Connected · Shell</text><rect x="0" y="36" width="1100" height="640" rx="0" fill="#15181D"/><text x="20" y="70" fill="#D9DFE8" font-family="JetBrains Mono" font-size="13" font-weight="400">❯ git diff --stat</text><text x="20" y="91" fill="#8993A3" font-family="JetBrains Mono" font-size="13" font-weight="400"> Design.swift         | 24 +++++</text><text x="20" y="112" fill="#8993A3" font-family="JetBrains Mono" font-size="13" font-weight="400"> WorkspaceView.swift  | 48 +++++</text><text x="20" y="133" fill="#8EC9AD" font-family="JetBrains Mono" font-size="13" font-weight="400"> 2 files changed</text><text x="20" y="154" fill="#D9DFE8" font-family="JetBrains Mono" font-size="13" font-weight="400"></text><text x="20" y="175" fill="#D9DFE8" font-family="JetBrains Mono" font-size="13" font-weight="400">❯</text><rect x="260" y="126" width="584" height="462" rx="7" fill="#0C0F13"/><rect x="258" y="122" width="584" height="462" rx="7" fill="#252B33"/><text x="284" y="160" fill="#D9DFE8" font-family="Inter" font-size="22" font-weight="600">Settings</text><text x="285" y="207" fill="#D9DFE8" font-family="Inter" font-size="13" font-weight="400">Appearance</text><text x="604" y="207" fill="#8FAEF0" font-family="Inter" font-size="13" font-weight="400">System  ▾</text><path d="M282 229H818" stroke="#303640"/><text x="285" y="265" fill="#D9DFE8" font-family="Inter" font-size="13" font-weight="400">Terminal font size</text><text x="604" y="265" fill="#8FAEF0" font-family="Inter" font-size="13" font-weight="400">13 pt  −  +</text><text x="285" y="313" fill="#D9DFE8" font-family="Inter" font-size="13" font-weight="400">Open localhost at launch</text><text x="688" y="313" fill="#8FAEF0" font-family="Inter" font-size="13" font-weight="400">On</text><path d="M282 339H818" stroke="#303640"/><text x="285" y="376" fill="#D9DFE8" font-family="Inter" font-size="13" font-weight="600">Extensions</text><text x="300" y="415" fill="#D9DFE8" font-family="Inter" font-size="13" font-weight="400">tmux</text><text x="688" y="415" fill="#8FAEF0" font-family="Inter" font-size="13" font-weight="400">Enabled</text><text x="300" y="451" fill="#D9DFE8" font-family="Inter" font-size="13" font-weight="400">Nerve</text><text x="688" y="451" fill="#8FAEF0" font-family="Inter" font-size="13" font-weight="400">Enabled</text><text x="286" y="541" fill="#8993A3" font-family="Inter" font-size="12" font-weight="400">⌘, opens Settings</text></g></svg>